<?xml version="1.0" encoding="UTF-8" standalone="no"?>
<svg
   xmlns:dc="http://purl.org/dc/elements/1.1/"
   xmlns:cc="http://creativecommons.org/ns#"
   xmlns:rdf="http://www.w3.org/1999/02/22-rdf-syntax-ns#"
   xmlns:svg="http://www.w3.org/2000/svg"
   xmlns="http://www.w3.org/2000/svg"
   xmlns:sodipodi="http://sodipodi.sourceforge.net/DTD/sodipodi-0.dtd"
   xmlns:inkscape="http://www.inkscape.org/namespaces/inkscape"
   version="1.1"
   id="Ebene_1"
   x="0px"
   y="0px"
   viewBox="0 0 390.32 111.37"
   xml:space="preserve"
   sodipodi:docname="Logo.svg"
   width="390.32001"
   height="111.37"
   inkscape:version="1.0.1 (3bc2e813f5, 2020-09-07)"><metadata
   id="metadata38"><rdf:RDF><cc:Work
       rdf:about=""><dc:format>image/svg+xml</dc:format><dc:type
         rdf:resource="http://purl.org/dc/dcmitype/StillImage" /><dc:title></dc:title></cc:Work></rdf:RDF></metadata><defs
   id="defs36" /><sodipodi:namedview
   pagecolor="#ffffff"
   bordercolor="#666666"
   borderopacity="1"
   objecttolerance="10"
   gridtolerance="10"
   guidetolerance="10"
   inkscape:pageopacity="0"
   inkscape:pageshadow="2"
   inkscape:window-width="1920"
   inkscape:window-height="1017"
   id="namedview34"
   showgrid="false"
   fit-margin-top="8.4"
   fit-margin-left="8.4"
   fit-margin-right="8.4"
   fit-margin-bottom="8.4"
   lock-margins="true"
   inkscape:zoom="1.2477961"
   inkscape:cx="200.40349"
   inkscape:cy="214.27979"
   inkscape:window-x="-8"
   inkscape:window-y="-8"
   inkscape:window-maximized="1"
   inkscape:current-layer="Ebene_1" />
<style
   type="text/css"
   id="style2">
	.st0{fill:#A8C839;}
	.st1{fill:#084578;}
	.st2{fill:url(#SVGID_1_);}
</style>
<g
   id="g31"
   transform="translate(-225.35,-242.04)">
	<path
   class="st0"
   d="m 476.23,270.3 3.56,-8.36 h -9.84 l -1.35,3.17 c 0,0 -0.01,-0.01 -0.01,-0.01 l -3.22,7.56 c 0,0 0.01,0.01 0.01,0.01 l -21.63,50.74 h 9.84 l 19.28,-45.22 c 6.41,6.21 10.42,14.89 10.42,24.49 0,18.82 -15.31,34.12 -34.13,34.12 -18.82,0 -34.12,-15.31 -34.12,-34.12 0,-18.23 14.38,-33.12 32.39,-34.04 l -4.73,11.1 h 9.84 l 12.49,-29.3 h -9.84 l -4.27,10.01 c -0.59,-0.03 -1.16,-0.12 -1.75,-0.12 -23.35,0 -42.34,18.99 -42.34,42.34 0,23.35 18.99,42.34 42.34,42.34 23.35,0 42.35,-18.99 42.35,-42.34 -0.02,-13.02 -6,-24.61 -15.29,-32.37 z"
   id="path4" />
	<g
   id="g8">
		<path
   class="st1"
   d="m 597,328.84 -12.99,-19.14 -12.86,19.14 h -10.12 l 17.78,-25.69 -16.82,-24.68 h 10.05 l 12.24,17.92 12.11,-17.92 h 9.64 l -16.75,24.32 17.99,26.05 z"
   id="path6" />
	</g>
	<path
   class="st1"
   d="m 233.75,323.25 3.08,-7.27 c 3.83,3.24 9.92,5.54 15.8,5.54 7.45,0 10.6,-2.81 10.6,-6.55 0,-10.87 -28.45,-3.74 -28.45,-22.45 0,-8.13 6.16,-15.04 19.29,-15.04 5.75,0 11.76,1.58 15.93,4.46 l -2.8,7.27 c -4.31,-2.66 -9.03,-3.96 -13.2,-3.96 -7.39,0 -10.39,3.02 -10.39,6.84 0,10.72 28.38,3.74 28.38,22.24 0,8.06 -6.22,14.97 -19.35,14.97 -7.47,0 -14.92,-2.45 -18.89,-6.05 z"
   id="path10" />
	<path
   class="st1"
   d="M 288.94,306.63 V 278.2 h 8.89 v 28.07 c 0,10.36 4.44,14.82 12.17,14.82 7.73,0 12.11,-4.46 12.11,-14.82 V 278.2 h 8.75 v 28.42 c 0,14.68 -7.87,22.67 -20.93,22.67 -13.13,0.01 -20.99,-7.98 -20.99,-22.66 z"
   id="path12" />
	<path
   class="st1"
   d="m 382.6,328.57 -9.78,-14.75 c -0.62,0.07 -1.23,0.07 -1.85,0.07 h -10.8 v 14.68 h -8.89 V 278.2 h 19.7 c 12.59,0 20.38,6.76 20.38,17.92 0,7.63 -3.69,13.24 -10.19,15.91 l 11.01,16.55 h -9.58 z m -12.04,-42.45 h -10.39 v 20.08 h 10.39 c 7.8,0 11.83,-3.74 11.83,-10.08 0.01,-6.33 -4.03,-10 -11.83,-10 z"
   id="path14" />
	<path
   class="st1"
   d="m 545.41,321.31 v 7.84 H 509.5 v -50.37 h 34.95 v 7.85 H 518.4 v 13.1 h 23.12 v 7.7 H 518.4 v 13.89 h 27.01 z"
   id="path16" />
	<linearGradient
   id="SVGID_1_"
   gradientUnits="userSpaceOnUse"
   x1="440.47891"
   y1="314.42068"
   x2="460.6088"
   y2="307.09409">
		<stop
   offset="0.1485"
   style="stop-color:#85A228"
   id="stop18" />
		<stop
   offset="0.3993"
   style="stop-color:#92B02E"
   id="stop20" />
		<stop
   offset="0.7612"
   style="stop-color:#A2C236"
   id="stop22" />
		<stop
   offset="1"
   style="stop-color:#A8C839"
   id="stop24" />
	</linearGradient>
	<polygon
   class="st2"
   points="453.59,323.4 460.58,307.01 455.83,295.08 443.75,323.4 "
   id="polygon27"
   style="fill:url(#SVGID_1_)" />
	<polygon
   class="st0"
   points="437.69,286.96 427.85,286.96 443.39,323.4 453.23,323.4 "
   id="polygon29" />
</g>
</svg>
